#!OML:ASF F:\VICON\USERDATA\INSTALL\rory3\rory3.ASF
:FULLY-SPECIFIED
:DEGREES
53
root -0.7236518125923831 17.818113494059133 -3.4015234509517045 4.213457152065427 1.6196160220010896 -0.9214451158958986
lfemur -21.82444584626908 2.235449835250847 -26.025139238593304
ltibia 38.374849479109514
lfoot 1.4190389826386993 -12.109455405349175
ltoes -16.666160744044838
rfemur -11.847891475239534 2.277887984934348 25.802044447577423
rtibia 110.57804282817824
rfoot 2.459786003045342 -10.78153893970242
rtoes -10.402793275493977
lowerback 13.629683787174347 1.36597685896517 0.9535484394318032
upperback -1.0093328934684556 2.0639225942066615 -0.352106968773237
thorax -7.509898792481598 0.9772936837864186 -0.9342284796429975
lowerneck -18.79779689256516 -5.040641115429718 -2.1309951015036983
upperneck 10.143235099629871 -6.910932908317119 3.718351194705586
head 6.373547653759246 -3.094876938770782 0.713301127108844
lclavicle 1.1245391003128673e-15 -1.4766016290343424e-15
lhumerus -36.388415166533264 -19.2741454168339 97.16497073243612
lradius 123.37497607186624
lwrist 35.89583800565414
lhand -29.947335002903653 -0.4431620126300716
lfingers 7.125019999999998
lthumb -3.5845533019210167 29.18836048807559
rclavicle 1.1245391003746461e-15 -1.4766016289939e-15
rhumerus -50.04264716026943 12.214315738962862 -98.5789821608549
rradius 120.26546341920243
rwrist -13.54027472906473
rhand -21.022784753581398 40.30972876727707
rfingers 7.125019999999998
rthumb 5.325042283261505 10.734062540436103
54
root -0.7372992384818083 17.766011593535996 -2.6260564076215536 4.028279179747564 1.6292115770058178 -0.6897398974316482
lfemur -20.719380719512245 2.2241763642573193 -26.313601555710534
ltibia 40.37939044548511
lfoot 0.14200020463951635 -11.220429092364851
ltoes -14.194023662936175
rfemur -13.882804203433073 1.6646073784123911 25.106602694508688
rtibia 111.97856082430548
rfoot 1.9421228446482706 -10.375385394176552
rtoes -9.910561160713506
lowerback 13.866201390892142 1.2905200912344745 0.5794540217691948
upperback -0.8853402484390833 1.898598048469304 -0.38637694531928535
thorax -7.5419397499758345 0.9135990609713183 -0.7407267087232406
lowerneck -18.936685845847556 -4.9848153539750175 -2.0933959311755395
upperneck 10.002968087698946 -6.850497329727118 3.842263067843403
head 6.361539904389081 -3.0561342252884205 0.770106208130013
lclavicle 1.1245391003098668e-15 -1.4766016290363027e-15
lhumerus -36.77283493719617 -19.027304200896197 97.25543474579206
lradius 123.50403648747942
lwrist 34.66662983984727
lhand -30.00339777386729 -0.21396142003027607
lfingers 7.125019999999998
lthumb -3.5321005096244464 29.65159001176469
rclavicle 1.1245391003762834e-15 -1.4766016289924435e-15
rhumerus -50.159181287340395 12.085358528758752 -99.00391521923994
rradius 119.72295606163351
rwrist -13.60215960828535
rhand -20.882965565099433 39.82295527109146
rfingers 7.125019999999998
rthumb 5.320000503644167 10.10713820655443
55
root -0.7465875024966787 17.70621007058954 -1.8989231256900867 3.8614573373614176 1.6246593375657263 -0.4671550971779401
lfemur -19.610089823274834 2.1877136720827313 -26.56367254764462
ltibia 42.36693910838314
lfoot -1.212431553774708 -10.432657825789562
ltoes -12.387211208010573
rfemur -15.894729631744605 1.091540503572857 24.457531203136135
rtibia 113.15629728896675
rfoot 1.4563475994483444 -9.819174664865049
rtoes -8.137854515334379
lowerback 14.090125013758668 1.2129146756825353 0.22901810560678837
upperback -0.7871779087841954 1.7320405311777345 -0.43629739257063105
thorax -7.649795031580521 0.8334805448497555 -0.5830095864142962
lowerneck -18.989899630971628 -4.916912694398059 -2.0569815355472154
upperneck 9.85277249316826 -6.768127077323492 3.945786574688501
head 6.338465156913229 -3.00858783918817 0.8202237950408652
lclavicle 1.1245391003093265e-15 -1.4766016290364643e-15
lhumerus -37.23323546017701 -18.79260767541147 97.35557951077568
lradius 123.5550697178832
lwrist 33.629180320088814
lhand -30.194329023209384 0.005685351176084458
lfingers 7.125019999999998
lthumb -3.7509126629038603 29.80154415169041
rclavicle 1.1245391003786178e-15 -1.4766016289904847e-15
rhumerus -50.26123983260572 11.95900651424302 -99.42530402842786
rradius 119.17223731715046
rwrist -13.532809851655914
rhand -20.832720213136678 39.12487732946795
rfingers 7.125019999999998
rthumb 5.278777262394007 9.424939294593273
56
root -0.7493579298585018 17.650482396533935 -1.3140109194216985 3.7238555949637693 1.6310346023549283 -0.26851204861793665
lfemur -18.498514766405037 2.1120229418089336 -26.771235965017652
ltibia 44.20033018611065
lfoot -2.3985987379035287 -9.788702321515531
ltoes -10.000633628035931
rfemur -17.852005645363782 0.510547345896714 23.864813096069422
rtibia 114.03841375202512
rfoot 1.139117631506784 -9.102479981112658
rtoes -5.2954953881737925
lowerback 14.272456928672845 1.12912529120567 -0.07330430242737118
upperback -0.6848551973170071 1.562569024538761 -0.507851784623023
thorax -7.735208856700025 0.7540428964814653 -0.45372945786883057
lowerneck -19.102849444337345 -4.853466193511706 -2.0214597854715897
upperneck 9.737805181815881 -6.694105432262674 4.032023338562086
head 6.330524207445798 -2.9654209406396004 0.8611385353272898
lclavicle 1.1245391003111452e-15 -1.4766016290347327e-15
lhumerus -37.72262044765121 -18.552085951630733 97.43506192513654
lradius 123.51037175646982
lwrist 32.76969663136649
lhand -30.462347724852723 0.14721114507174232
lfingers 7.125019999999998
lthumb -3.8700092360696554 30.042339132416892
rclavicle 1.1245391003816912e-15 -1.4766016289878089e-15
rhumerus -50.35994590567156 11.843478271817576 -99.84042203136634
rradius 118.63934588783373
rwrist -13.229899774203913
rhand -20.789793840228675 38.38285094248179
rfingers 7.125019999999998
rthumb 5.254370324101055 8.73640544139543
57
root -0.7564854705169592 17.600850511244612 -0.8744935145093544 3.634731712321118 1.5758503374847468 -0.16376172696648306
lfemur -17.423722869751998 2.0378518957513467 -26.835288717891906
ltibia 45.782028045710504
lfoot -3.0629338567412288 -9.190800684203511
ltoes -6.754731249106294
rfemur -19.85028909113361 0.026326341554572252 23.45742232693491
rtibia 114.62880666447991
rfoot 0.8708326791362953 -8.445021870408436
rtoes -2.4635663637452088
lowerback 14.467559452198897 1.0550566710292633 -0.30007841577081096
upperback -0.6052546702386137 1.431741821482072 -0.5387136229438045
thorax -7.9085658635175 0.6900914892676292 -0.33510434724968674
lowerneck -19.19905807463228 -4.798229166180529 -1.978238330985071
upperneck 9.628055389996264 -6.629559334805777 4.09630958278756
head 6.319093984104167 -2.9316252974979116 0.8905235450559645
lclavicle 1.1245391003118256e-15 -1.4766016290337133e-15
lhumerus -38.21436402692963 -18.3430138339216 97.49516999995905
lradius 123.32904413698957
lwrist 32.01973203523409
lhand -30.764127227330906 0.09883375557912569
lfingers 7.125019999999998
lthumb -4.237198313472467 30.067201654190864
rclavicle 1.1245391003850543e-15 -1.4766016289847807e-15
rhumerus -50.47955905889644 11.729819995915843 -100.23493079119098
rradius 118.12789692626427
rwrist -13.149606071901552
rhand -20.725438295463434 37.63460726812169
rfingers 7.125019999999998
rthumb 5.238271579242557 8.014437510834412
58
root -0.7643909586588279 17.523188709986222 -0.3679723854227044 3.520577921813578 1.428789598133116 -0.07654700475390364
lfemur -16.346834994219666 2.01521573819151 -26.87711925972223
ltibia 47.010760293913215
lfoot -3.740246128512895 -8.937208927326756
ltoes -3.780410797730304
rfemur -21.79988482192372 -0.32482018510359767 23.13393030967668
rtibia 115.13741478867783
rfoot 0.7292285107278378 -7.785276150647782
rtoes 0.10856099554666887
lowerback 14.674673194253135 0.9981792553445995 -0.516196845651212
upperback -0.5584334913671569 1.326372117095751 -0.5372080143133344
thorax -8.1628104859186 0.6390122086676441 -0.23846358703333514
lowerneck -19.31789164233338 -4.750167758968261 -1.9374914999785224
upperneck 9.54367909988289 -6.573949580315033 4.141728637643247
head 6.322353001153854 -2.8981900413382355 0.9084974868446313
lclavicle 1.1245391003139111e-15 -1.476601629031584e-15
lhumerus -38.83733259663659 -18.084802832954445 97.5882159380079
lradius 123.00920986743873
lwrist 31.417456613610643
lhand -30.970660582635816 0.24443191480050735
lfingers 7.125019999999998
lthumb -4.4845126212657 30.10280465860587
rclavicle 1.124539100388015e-15 -1.4766016289819733e-15
rhumerus -50.63776384757632 11.627153565688612 -100.60888587183885
rradius 117.63644534456176
rwrist -13.492300463430606
rhand -20.589089571666122 37.17739776456726
rfingers 7.125019999999998
rthumb 5.278783647850689 7.5729117372604104
